<svg xmlns="http://www.w3.org/2000/svg" viewBox="0 0 512 512"><path fill="#f7f4ec" d="M0 0h512v512H0z"/><path stroke="#a6a6a6" stroke-width="3.5" d="M248 256h16m10 0h14m10 0h14m10 0h14m10 0h14m10 0h14m10 0h14m10 0h14m10 0h14m10 0h14m-224-8v16m0 10v14m0 10v14m0 10v14m0 10v14m0 10v14m0 10v14m0 10v14m0 10v14m0 10v14m-5.7-229.7 11.4 11.4m7 7 9.9 9.9m7.1 7.1 9.9 9.9m7.1 7.1 9.9 9.9m7 7 9.9 9.9m7.1 7.1 9.9 9.9m7.1 7.1 9.9 9.9m7.1 7.1 9.9 9.9m7 7 9.9 9.9m7.1 7.1 9.9 9.9m7.1 7.1 9.9 9.9m7 7 9.9 9.9m7.1 7.1 9.9 9.9m7.1 7.1 9.9 9.9m-232-220.6 11.4-11.4m7-7 9.9-9.9m7.1-7.1 9.9-9.9m7.1-7.1 9.9-9.9m7-7 9.9-9.9m7.1-7.1 9.9-9.9m7.1-7.1 9.9-9.9m7.1-7.1 9.9-9.9m7-7 9.9-9.9m7.1-7.1 9.9-9.9m7.1-7.1 9.9-9.9m7-7 9.9-9.9m7.1-7.1 9.9-9.9m7.1-7.1 9.9-9.9"/><path fill="none" stroke="#333" stroke-width="7" d="M28 28h456v456H28z"/><path fill="#c0392b" d="M339 70.7q15.3 0 35.7 17 18.7 15.3 10.2 20.4-15.3 8.5-35.7 44.2-10.2 18.7-15.3 23.8-8.5 13.6-23.8-3.4l-54.4 6.8v32.3q10.2-1.7 34-6.8 8.5-3.4 10.2-3.4 18.7 0 25.5 5.1 5 6.8-10.2 10.2-8.5 1.7-22.1 3.4-23.8 3.4-37.4 5.1v28.9q15.3-1.7 42.5-6.8 22-3.4 28.9-3.4 18.7 0 27.2 10.2 3.4 10.2-13.6 10.2-79.9 0-161.5 17-17 3.4-20.4 3.4-45.9-8.5-22-13.6 32.2-1.7 98.5-13.6v-30.6q-6.8 0-15.3 3.4-10.2 1.7-17 3.4-37.4-3.4-22.1-11.9 15.3-1.7 39.1-5.1 11.9-1.7 17-1.7v-32.3l-42.5 6.8q-5.1 8.5-10.2 8.5t-6.8-8.5q-1.7-1.7-5-10.2-25.6-64.6-40.9-78.2-11.9-11.9 34-5h5.1q113.9-8.6 166.6-25.6zm-5.1 20.4q-5.1 0-39.1 1.7-27.2 3.4-39.1 3.4v73.1l59.5-6.8q18.7-28.9 25.5-61.2 1.7-11.9-6.8-10.2m-98.6 10.2-66.3 6.8 18.7 71.4 47.6-8.5Zm56 3.4q13.7-1.7 22.2 17 0 3.4-10.2 10.2-8.5 5.1-13.6 8.5-18.7 12-17 3.4 5-8.5 10.2-15.3 6.8-10.2 6.8-18.7 0-3.4 1.7-5m-100.2 25.5q-3.4-8.5 10.2-5h5.1q25.5 17 8.5 30.5-15.3-5-23.8-25.5m175 153q-13.5-22.1 61.3 13.6 25.5 35.7 5 44.2-18.6 0-66.2-57.8M271 290q-5.1-15.3 32.3-1.7 25.5 23.8 6.8 34-20.4 0-39.1-32.3m-100.3 11.9q5.1-13.6 35.7 3.4 15.3 22-1.7 27.2-15.3 0-34-30.6m-98.6 17q1.7-23.8 34 11.9 12 32.3-10.2 37.4-15.3-3.4-23.8-49.3m166.6-1.7q27.2 5 27.2 11.9 0 3.4-1.7 11.9t-1.7 13.6l20.4-5.1q22-5.1 27.2-5.1 13.6 0 22 8.5 5.2 8.5-6.7 10.2-15.3 1.7-62.9 8.5v35.7q17-1.7 47.6-6.8 37.4-5.1 44.2-5.1 56 11.9 30.6 28.9-10.2 0-63-3.4h-17q-57.7 0-132.5 17-18.7 3.4-22 3.4-37.5-8.5-29-18.7 78.2-5.1 119-12v-37.3q-1.7 0-8.5 1.7-18.7 3.4-27.2 3.4-49.3-6.8-23.8-13.6 18.7-1.7 49.3-5.1 6.8-1.7 10.2-1.7 0-10.2-1.7-20.4-1.7-3.4-3.4-8.5-5.1-13.6 3.4-12"/></svg>